<?xml version="1.0" encoding="UTF-8" standalone="no"?>
<svg
   width="397.72474"
   height="407.127"
   viewBox="0 0 397.72474 407.127"
   version="1.1"
   id="svg74"
   sodipodi:docname="miniappcover.svg"
   inkscape:version="1.1.2 (0a00cf5339, 2022-02-04)"
   xmlns:inkscape="http://www.inkscape.org/namespaces/inkscape"
   xmlns:sodipodi="http://sodipodi.sourceforge.net/DTD/sodipodi-0.dtd"
   xmlns="http://www.w3.org/2000/svg"
   xmlns:svg="http://www.w3.org/2000/svg">
  <defs
     id="defs78" />
  <sodipodi:namedview
     id="namedview76"
     pagecolor="#ffffff"
     bordercolor="#666666"
     borderopacity="1.0"
     inkscape:pageshadow="2"
     inkscape:pageopacity="0.0"
     inkscape:pagecheckerboard="0"
     showgrid="false"
     inkscape:zoom="1.7463838"
     inkscape:cx="6.5850361"
     inkscape:cy="135.4227"
     inkscape:window-width="1920"
     inkscape:window-height="1007"
     inkscape:window-x="0"
     inkscape:window-y="0"
     inkscape:window-maximized="1"
     inkscape:current-layer="svg74" />
  <path
     d="M397.72474,406.28697h0c0,.46394-.37609,.84003-.84003,.84003H0v-1.68005H396.88472c.46393,0,.84003,.37609,.84003,.84003Z"
     fill="#e6e6e6"
     id="path72" />
  <rect
     style="fill:#ff7f2a;stroke-width:1.73187;stroke-linecap:round;stroke-linejoin:round;paint-order:stroke fill markers"
     id="rect868"
     width="176.6624"
     height="99.372604"
     x="15.181046"
     y="27.378534"
     inkscape:export-xdpi="347.78198"
     inkscape:export-ydpi="347.78198" />
  <rect
     style="fill:#ff7f2a;fill-opacity:1;stroke-width:1.83203;stroke-linecap:round;stroke-linejoin:round;paint-order:stroke fill markers"
     id="rect9472"
     width="128"
     height="128"
     x="38.373486"
     y="11.478624"
     inkscape:export-xdpi="384"
     inkscape:export-ydpi="384" />
  <g
     id="g8752"
     transform="matrix(0.49528257,0,0,0.49528257,-53.922168,30.694605)">
    <path
       d="m 304.13274,-15.06096 c 0,0 -20.62,2.33 -21.95,34.25 -1.11,26.6 -3.37,41.43 7.45,46.98 3.87,1.98 8.42,2.16 12.55,0.8 l 44.18,-14.53 c 0,0 0.67,-47.89 -14.63,-59.52 -15.3,-11.64 -27.6,-7.98 -27.6,-7.98 z"
       fill="#2f2e41"
       stroke-width="0"
       id="path23" />
    <polygon
       points="562.31,196.78 539.95,204.13 539.95,171.95 560.23,171.95 "
       fill="#ffb6b6"
       stroke-width="0"
       id="polygon25"
       transform="translate(-233.81726,-138.46096)" />
    <rect
       x="299.14276"
       y="418.60904"
       width="20.940001"
       height="29.709999"
       fill="#ffb6b6"
       stroke-width="0"
       id="rect29" />
    <path
       d="m 278.75274,466.30904 c -2.2,0 -4.16,-0.05 -5.64,-0.19 -5.56,-0.51 -10.87,-4.62 -13.54,-7.02 -1.2,-1.08 -1.58,-2.8 -0.96,-4.28 v 0 c 0.45,-1.06 1.34,-1.86 2.45,-2.17 l 14.7,-4.2 23.8,-16.06 0.27,0.48 c 0.1,0.18 2.44,4.39 3.22,7.23 0.3,1.08 0.22,1.98 -0.23,2.68 -0.31,0.48 -0.75,0.76 -1.1,0.92 0.43,0.45 1.78,1.37 5.94,2.03 6.07,0.96 7.35,-5.33 7.4,-5.59 l 0.04,-0.21 0.18,-0.12 c 2.89,-1.86 4.67,-2.71 5.28,-2.53 0.38,0.11 1.02,0.31 2.75,17.44 0.17,0.54 1.38,4.48 0.56,8.25 -0.89,4.1 -18.81,2.69 -22.4,2.37 -0.1,0.01 -13.52,0.97 -22.71,0.97 z"
       fill="#2f2e41"
       stroke-width="0"
       id="path31" />
    <rect
       x="92.073326"
       y="536.32367"
       width="20.940001"
       height="29.709999"
       transform="rotate(-31.95)"
       fill="#ffb6b6"
       stroke-width="0"
       id="rect33" />
    <path
       d="m 356.11274,462.23904 c -2.46,0 -4.72,-0.3 -6.33,-0.58 -1.58,-0.28 -2.82,-1.54 -3.08,-3.12 v 0 c -0.18,-1.14 0.15,-2.29 0.93,-3.14 l 10.25,-11.34 11.7,-26.22 0.48,0.26 c 0.18,0.1 4.39,2.43 6.56,4.43 0.83,0.76 1.24,1.57 1.22,2.4 -0.01,0.58 -0.23,1.04 -0.45,1.37 0.6,0.16 2.23,0.22 6.11,-1.42 5.66,-2.39 3.42,-8.41 3.32,-8.66 l -0.08,-0.2 0.09,-0.19 c 1.47,-3.11 2.52,-4.77 3.14,-4.94 0.39,-0.11 1.03,-0.28 11.56,13.35 0.43,0.36 3.54,3.07 4.84,6.7 1.41,3.95 -14.54,12.24 -17.75,13.86 -0.1,0.08 -16.79,12.21 -23.65,15.66 -2.72,1.37 -5.94,1.79 -8.87,1.79 z"
       fill="#2f2e41"
       stroke-width="0"
       id="path35" />
    <path
       d="m 335.50274,170.15904 h -58.63 l -5.32,54.54 23.28,201.52 h 29.93 l -11.97,-116.39 48.55,105.08 26.6,-18.62 -37.91,-98.1 c 0,0 13.54,-85.46 2.9,-106.75 -10.64,-21.28 -17.43,-21.28 -17.43,-21.28 z"
       fill="#2f2e41"
       stroke-width="0"
       id="path37" />
    <polygon
       points="598.48,311.95 496.73,311.95 533.31,191.57 573.88,191.57 "
       fill="#00b0ff"
       stroke-width="0"
       id="polygon39"
       transform="translate(-233.81726,-138.46096)"
       style="fill:#e6e6e6;fill-opacity:1" />
    <circle
       cx="308.90274"
       cy="20.119043"
       r="22.280001"
       fill="#ffb6b6"
       stroke-width="0"
       id="circle45" />
    <path
       d="m 302.80274,-6.75096 c 0,0 -12.26,49.79 1.37,73.06 l -19.2,-4.08 c 0,0 -7.44,-54.49 7.52,-64.4 l 10.31,-4.59 z"
       fill="#2f2e41"
       stroke-width="0"
       id="path47" />
  </g>
  <path
     d="m 83.846572,66.133344 c -1.11186,3.770299 -4.805157,29.893081 -4.805157,29.893081 l -2.831526,11.445555 12.680304,-6.86734 -2.708413,-4.570795 19.59158,-19.779588 -1.84665,-14.946542 c -5.409455,1.102577 -18.473045,0.554183 -20.080138,4.825629 z"
     fill="#e6e6e6"
     id="path18"
     style="stroke-width:0.473577"
     sodipodi:nodetypes="cccccccc" />
  <path
     d="m 96.223438,103.3928 c 1.362532,0.002 2.629257,-0.8574 3.158992,-2.23045 0.400624,-1.03838 0.362849,-2.034658 0.06308,-2.888813 0.09647,-0.04373 0.192105,-0.08922 0.290865,-0.127882 -0.145098,-0.0643 -0.2861,-0.136955 -0.427018,-0.209737 -0.490835,-1.069994 -1.431842,-1.846488 -2.552632,-2.035091 -1.388297,-1.626573 -2.241654,-3.806074 -2.250559,-6.204777 -0.01833,-4.943648 3.648132,-9.073066 8.166704,-9.191657 0.0356,-9.9e-4 0.0711,-0.0015 0.10658,-0.002 2.02337,-0.02551 3.85886,1.212477 4.884,3.120667 0.59818,1.113445 1.70356,1.860895 2.97002,1.860895 0.96955,0 1.8442,-0.438419 2.46941,-1.143642 1.36216,-1.536495 3.06783,-2.679771 4.99813,-3.0305 1.26764,-0.230326 2.57963,-0.317229 3.92197,-0.244239 9.18897,0.499621 17.09458,9.407343 17.29081,19.468066 0.21856,11.2055 -8.02084,20.36419 -18.21599,20.36419 -5.30488,0 -10.07794,-2.48134 -13.40673,-6.43955 -1.47787,-1.75729 -3.5488,-2.74164 -5.73167,-2.71726 -0.0222,2.4e-4 -0.0445,3.7e-4 -0.0667,3.7e-4 -3.535554,0 -6.401704,-3.1349 -6.401704,-7.00199 0,-0.21446 0.0098,-0.42631 0.02803,-0.63545 0.03417,-0.39105 0.345286,-0.7115 0.70445,-0.71109 v 0 z"
     fill="#00b0ff"
     id="path20"
     style="stroke-width:0.473577" />
  <polygon
     points="198.09407,153.1852 199.7253,136.87287 64.33299,111.31689 63.78924,121.10429 "
     fill="#00b0ff"
     id="polygon38"
     transform="matrix(0.45282219,0,0,0.49528257,36.074572,29.677305)" />
  <path
     d="m 65.944638,85.618543 -0.73866,-0.80792 c 0,0 -3.200853,-1.615845 -3.200853,-1.88515 0,-0.168564 -4.726546,-1.9197 -8.262843,-3.206276 -1.974954,-0.718526 -4.060644,0.703336 -4.34186,2.958967 l -0.443144,3.55444 c -0.264972,2.125336 1.201159,4.038331 3.16071,4.124064 l 8.656038,0.378708 4.185732,-1.07723 z"
     fill="#00b0ff"
     id="path40"
     style="stroke-width:0.473577" />
  <polygon
     points="64.06112,114.30749 199.45343,139.86346 199.77628,138.50888 64.29741,112.60828 "
     fill="#3f3d56"
     id="polygon42"
     transform="matrix(0.45282219,0,0,0.49528257,36.074572,29.677305)" />
  <polygon
     points="64.06112,117.02621 199.14306,142.43563 199.45343,140.95095 64.15006,115.28931 "
     fill="#3f3d56"
     id="polygon44"
     transform="matrix(0.45282219,0,0,0.49528257,36.074572,29.677305)" />
  <polygon
     points="64.06112,118.65744 198.83269,145.51809 198.90968,143.12593 64.04386,117.24126 "
     fill="#3f3d56"
     id="polygon46"
     transform="matrix(0.45282219,0,0,0.49528257,36.074572,29.677305)" />
  <polygon
     points="63.73136,119.72369 198.47134,149.09809 198.36594,146.93214 63.84712,119.19269 "
     fill="#3f3d56"
     id="polygon48"
     transform="matrix(0.45282219,0,0,0.49528257,36.074572,29.677305)" />
  <polygon
     points="63.9289,120.62002 198.46895,151.26882 198.36594,149.65086 64.04943,120.09008 "
     fill="#3f3d56"
     id="polygon50"
     transform="matrix(0.45282219,0,0,0.49528257,36.074572,29.677305)" />
  <path
     d="m 117.94788,104.99876 c 0.90471,-0.78955 1.57136,-1.73714 1.94706,-2.67375 l 9.05286,-6.926123 -3.1392,-4.615226 -8.84523,7.522768 c -0.91836,0.192734 -1.9111,0.693331 -2.8158,1.482887 -2.06679,1.803734 -2.89151,4.432114 -1.84208,5.870664 1.04943,1.43855 3.5756,1.14251 5.64239,-0.66122 v 0 z"
     fill="#a0616a"
     id="path58"
     style="stroke-width:0.473577" />
  <path
     d="m 85.246107,92.482277 c -0.671296,1.031243 -1.073986,2.142825 -1.199703,3.156332 l -6.962306,9.382151 4.17859,3.493 6.612666,-9.893347 c 0.834492,-0.461548 1.663075,-1.241455 2.334371,-2.272698 1.533573,-2.355876 1.665625,-5.130984 0.29496,-6.198392 -1.370665,-1.067413 -3.724995,-0.02293 -5.258568,2.332949 v 0 z"
     fill="#a0616a"
     id="path60"
     style="stroke-width:0.473577" />
  <path
     d="m 115.06542,65.968444 c 0,0 -3.88546,-3.622081 -2.57815,-4.107204 0.65951,-0.244732 4.76325,-0.319099 5.5063,0.493625 1.7535,1.917919 12.87356,16.119895 16.81101,21.130411 1.08581,1.38173 1.68193,3.142256 1.68193,4.964242 v 0 c 0,2.818287 -1.42259,5.406287 -3.69831,6.728033 l -12.30596,7.147339 -3.44707,-5.655449 10.58744,-8.348518 -16.25048,-9.695052 -0.95229,-17.402546 z"
     fill="#e6e6e6"
     id="path62"
     style="stroke-width:0.473577"
     sodipodi:nodetypes="csssssscccccc" />
  <polyline
     points="88.5082 142.43563 84.17965 155.0883 96.68577 161.61323 106.20129 155.0883 112.18248 141.22282 94.51079 136.05725"
     fill="#e6e6e6"
     id="polyline64"
     transform="matrix(0.45282219,0,0,0.49528257,38.055702,30.667865)" />
</svg>
